<svg width="21" height="18" viewBox="0 0 21 18" fill="none" xmlns="http://www.w3.org/2000/svg">
<path fill-rule="evenodd" clip-rule="evenodd" d="M9.62458 9.94679L4.52866 17.0635C4.26768 17.428 3.82887 17.6192 3.38451 17.5639C2.8787 17.5009 2.18228 17.3111 1.46393 16.7945C0.745817 16.2779 0.343387 15.6778 0.12193 15.2177C-0.0725378 14.8134 -0.0325357 14.3355 0.228682 13.9708L5.3246 6.85404C5.56727 6.51497 5.88535 6.23723 6.25405 6.04282L7.25651 5.51392C7.45772 5.40766 7.63773 5.26613 7.78834 5.09539C8.27487 4.54354 9.58121 3.09643 11.8977 0.757914L11.938 0.572437C11.9473 0.52969 11.9796 0.495879 12.0221 0.485252L12.1498 0.453132C12.2052 0.439124 12.2425 0.386717 12.238 0.32948L12.225 0.171776C12.2197 0.106569 12.2691 0.04909 12.3341 0.047158C12.4879 0.0428108 12.7874 0.0872482 13.2098 0.391064C13.6323 0.694639 13.7701 0.964886 13.8152 1.11221C13.8342 1.17476 13.7959 1.2402 13.7323 1.2559L13.579 1.29406C13.5233 1.30783 13.4857 1.35999 13.4903 1.41747L13.5009 1.54885C13.5045 1.59232 13.4828 1.63434 13.4455 1.65656L13.2831 1.75437C11.8141 4.70221 10.8642 6.40581 10.4984 7.04459C10.3851 7.24215 10.309 7.45829 10.273 7.68338L10.0938 8.8047C10.028 9.21671 9.86749 9.60771 9.62458 9.94679ZM20.7714 13.9707L15.6754 6.85395C15.4328 6.51487 15.1145 6.23738 14.7462 6.04297L13.7435 5.51382C13.5423 5.40756 13.3623 5.26628 13.2117 5.09529C13.0924 4.96005 12.9201 4.76732 12.6984 4.52316C12.6635 4.485 12.5984 4.49321 12.5743 4.53934C11.8018 6.02123 11.2817 6.9491 11.047 7.35918C10.9716 7.49056 10.9212 7.63353 10.8971 7.78351C10.846 8.10326 10.846 8.4293 10.8971 8.74881L10.9063 8.8046C10.9721 9.21661 11.1326 9.60761 11.3755 9.94669L16.4714 17.0634C16.73 17.4247 17.1625 17.6187 17.6033 17.5655C18.11 17.5039 18.812 17.3153 19.5361 16.7944C20.2542 16.278 20.6564 15.6779 20.8779 15.2178C21.0726 14.8133 21.0326 14.3356 20.7714 13.9707ZM7.26776 1.25593L7.42102 1.29408C7.47669 1.30785 7.51404 1.36026 7.5097 1.4175L7.4991 1.54888C7.49549 1.59259 7.51693 1.63413 7.55452 1.65659L7.71694 1.7544C7.98876 2.29972 8.24131 2.7994 8.47698 3.25995C8.49939 3.30415 8.5565 3.31284 8.59024 3.27662C8.97291 2.86654 9.43341 2.3799 9.97682 1.81671C10.0216 1.77034 10.024 1.69619 9.97923 1.65007C9.70403 1.36799 9.41462 1.07311 9.10231 0.757938L9.06207 0.572219C9.05291 0.529714 9.02014 0.495903 8.97797 0.485276L8.85025 0.453156C8.79483 0.439149 8.75748 0.386742 8.76206 0.329504L8.77507 0.1718C8.78037 0.106834 8.73193 0.0491142 8.66711 0.0471821C8.51385 0.0425935 8.21383 0.0863063 7.7902 0.390847C7.36777 0.694663 7.22993 0.96491 7.18487 1.11223C7.16583 1.17478 7.20415 1.24023 7.26776 1.25593Z" fill="#EAE6D8"/>
</svg>
