<svg width="19" height="19" viewBox="0 0 19 19" fill="none" xmlns="http://www.w3.org/2000/svg">
<path d="M9.19524 4.44402C6.57388 4.44402 4.48498 6.57388 4.48498 9.15428C4.48498 11.7756 6.57388 13.8645 9.19524 13.8645C11.7756 13.8645 13.9055 11.7756 13.9055 9.15428C13.9055 6.57388 11.7756 4.44402 9.19524 4.44402ZM9.19524 12.2262C7.51593 12.2262 6.12333 10.8745 6.12333 9.15428C6.12333 7.47497 7.47497 6.12333 9.19524 6.12333C10.8745 6.12333 12.2262 7.47497 12.2262 9.15428C12.2262 10.8745 10.8745 12.2262 9.19524 12.2262ZM15.1752 4.28019C15.1752 3.66581 14.6837 3.1743 14.0693 3.1743C13.4549 3.1743 12.9634 3.66581 12.9634 4.28019C12.9634 4.89457 13.4549 5.38607 14.0693 5.38607C14.6837 5.38607 15.1752 4.89457 15.1752 4.28019ZM18.2881 5.38607C18.2062 3.91156 17.8785 2.60088 16.8136 1.53595C15.7486 0.471025 14.438 0.143356 12.9634 0.0614381C11.448 -0.0204794 6.90155 -0.0204794 5.38607 0.0614381C3.91156 0.143356 2.64184 0.471025 1.53595 1.53595C0.471025 2.60088 0.143356 3.91156 0.0614381 5.38607C-0.0204794 6.90155 -0.0204794 11.448 0.0614381 12.9634C0.143356 14.438 0.471025 15.7077 1.53595 16.8136C2.64184 17.8785 3.91156 18.2062 5.38607 18.2881C6.90155 18.37 11.448 18.37 12.9634 18.2881C14.438 18.2062 15.7486 17.8785 16.8136 16.8136C17.8785 15.7077 18.2062 14.438 18.2881 12.9634C18.37 11.448 18.37 6.90155 18.2881 5.38607ZM16.3221 14.5608C16.0353 15.38 15.38 15.9944 14.6018 16.3221C13.373 16.8136 10.5059 16.6907 9.19524 16.6907C7.8436 16.6907 4.97649 16.8136 3.78868 16.3221C2.96951 15.9944 2.35513 15.38 2.02746 14.5608C1.53595 13.373 1.65883 10.5059 1.65883 9.15428C1.65883 7.8436 1.53595 4.97649 2.02746 3.74772C2.35513 2.96951 2.96951 2.35513 3.78868 2.02746C4.97649 1.53595 7.8436 1.65883 9.19524 1.65883C10.5059 1.65883 13.373 1.53595 14.6018 2.02746C15.38 2.31417 15.9944 2.96951 16.3221 3.74772C16.8136 4.97649 16.6907 7.8436 16.6907 9.15428C16.6907 10.5059 16.8136 13.373 16.3221 14.5608Z" fill="#EAE6D8"/>
</svg>
