<svg width="60" height="26" viewBox="0 0 60 26" fill="none" xmlns="http://www.w3.org/2000/svg">
<path fill-rule="evenodd" clip-rule="evenodd" d="M4.39804 0.609439L3.8007 1.219V3.12142V5.02396L2.75285 3.97644L1.70499 2.92892H0.852497H0L0.0133029 3.91558L0.0266048 4.90225L2.52164 7.27864L5.01654 9.65503L7.58088 7.21753L10.1451 4.7799L10.1085 3.88617L10.0719 2.99258L9.19073 2.95438L8.3096 2.91606L7.32813 3.97287L6.34666 5.02956L6.34058 3.17922L6.3345 1.32887L5.66494 0.664437L4.99551 0L4.39804 0.609439ZM32.8563 2.7997C31.3209 3.12587 30.1774 4.34539 29.6909 6.17536C29.4288 7.16138 29.4439 21.0467 29.7082 22.0663C30.0969 23.5658 30.7768 24.4884 31.9028 25.0442C32.5475 25.3623 32.7549 25.399 33.8896 25.3953C35.0115 25.3917 35.2307 25.3522 35.8055 25.0512C37.0334 24.408 37.8611 23.1118 38.144 21.389C38.2072 21.0039 38.2582 17.6811 38.2575 14.005C38.2558 6.61929 38.2221 6.2189 37.4852 4.82955C37.0193 3.9511 36.5646 3.52092 35.6632 3.10563C34.9431 2.77386 33.6444 2.63229 32.8563 2.7997ZM15.1357 3.08475C15.1018 3.17412 15.0888 8.17414 15.1068 14.196L15.1395 25.1447L16.6914 25.1805L18.2434 25.2163L18.2559 17.7328L18.2683 10.2493L19.3921 17.697C20.0102 21.7933 20.5176 25.1591 20.5199 25.1766C20.522 25.194 20.8525 25.2084 21.2543 25.2084H21.9848L23.0405 17.9835C23.6211 14.0097 24.1437 10.644 24.2017 10.5039C24.2599 10.3638 24.3112 13.6103 24.3159 17.7288L24.3245 25.2084H25.8448H27.365V14.0687V2.92892H25.3485H23.332L23.2058 3.53365C23.1364 3.86619 22.6613 6.36403 22.1501 9.08429C21.2548 13.8484 21.2168 14.0028 21.1188 13.2856C21.0628 12.876 20.6061 10.3925 20.1038 7.76675L19.1905 2.99258L17.194 2.95744C15.6662 2.9307 15.1829 2.96062 15.1357 3.08475ZM39.654 3.12778C39.654 3.23714 40.3951 8.21565 41.3009 14.1911C42.2068 20.1666 42.9479 25.0916 42.9479 25.1357C42.9479 25.1797 43.7032 25.1997 44.6266 25.1802L46.3052 25.1447L47.9095 14.5779C48.7917 8.76614 49.5506 3.76765 49.5958 3.46999L49.6781 2.92892H48.0827C46.9205 2.92892 46.4722 2.97221 46.4315 3.08806C46.3756 3.24733 44.7652 15.456 44.689 16.2966C44.6561 16.6608 44.6306 16.6027 44.5494 15.9783C43.2468 5.96568 42.9304 3.57159 42.8715 3.27903L42.8011 2.92892H41.2276C39.8856 2.92892 39.654 2.9582 39.654 3.12778ZM51.0056 13.7822C50.1131 19.7516 49.3541 24.7643 49.3189 24.9219C49.2552 25.2075 49.2597 25.2084 50.8928 25.2084H52.5307L52.823 22.9766L53.1154 20.7449L54.6508 20.7805L56.1863 20.8161L56.4703 22.9685C56.6265 24.1522 56.7757 25.1422 56.8018 25.1685C56.8281 25.1948 57.5583 25.2001 58.4247 25.1805L60 25.1447L58.3259 14.0687C57.4053 7.97681 56.647 2.97832 56.6412 2.96075C56.6352 2.94318 55.7299 2.92892 54.6294 2.92892H52.6283L51.0056 13.7822ZM34.4565 6.23583C34.5941 6.37409 34.7385 6.61751 34.7775 6.7769C34.8166 6.93617 34.8323 10.3405 34.8125 14.3419C34.7778 21.3468 34.7673 21.6272 34.5296 21.891C34.3395 22.1021 34.1649 22.1564 33.7695 22.1272C33.3254 22.0944 33.2262 22.029 33.0347 21.6437C32.8317 21.2356 32.8131 20.6061 32.813 14.1724C32.8127 7.06679 32.834 6.70777 33.2846 6.20744C33.5523 5.91004 34.1466 5.92443 34.4565 6.23583ZM0 9.0806V10.0125L1.86868 11.7903C2.89639 12.768 4.03584 13.8453 4.4007 14.1841L5.06393 14.8003L7.5862 12.3974L10.1086 9.99469L10.1219 9.07169L10.1352 8.14868H9.19554H8.25588L6.65756 9.83556L5.05911 11.5224L3.41087 9.83556L1.76264 8.14868H0.881382H0V9.0806ZM55.1784 13.1775C55.4218 15.068 55.6496 16.7437 55.6847 16.9013C55.7469 17.181 55.7228 17.1878 54.6691 17.1878C54.0756 17.1878 53.5899 17.1679 53.5899 17.1436C53.5899 17.1193 53.786 15.6154 54.0257 13.8017C54.2654 11.9879 54.5062 10.1602 54.5608 9.74007C54.6281 9.22281 54.6724 9.09957 54.698 9.35814C54.7189 9.5682 54.9351 11.2869 55.1784 13.1775ZM0.00886826 14.2278L0.0177365 15.2145L2.5205 17.5907L5.02326 19.967L7.5843 17.5357L10.1453 15.1046L10.1086 14.2046L10.0719 13.3048L9.22987 13.2675L8.38789 13.2301L6.69519 14.9638L5.00261 16.6975L3.37781 14.9694L1.75314 13.2411H0.876568H0L0.00886826 14.2278ZM0 19.3975V20.3343L2.49339 22.7105C3.86468 24.0176 5.0263 25.0713 5.07482 25.0522C5.12322 25.0331 6.278 23.9576 7.6408 22.6622L10.1189 20.3069L10.127 19.3839L10.1352 18.4609H9.19731H8.25943L6.66668 20.1478L5.07406 21.8346L3.40188 20.1478L1.72983 18.4609H0.864913H0V19.3975Z" fill="#FAF7F0"/>
</svg>
